<svg width="20" height="20" viewBox="0 0 20 20" fill="none" xmlns="http://www.w3.org/2000/svg">
<path d="M16.5741 2H14.6242V1C14.6242 0.734784 14.5215 0.48043 14.3387 0.292893C14.1558 0.105357 13.9079 0 13.6493 0C13.3907 0 13.1427 0.105357 12.9599 0.292893C12.7771 0.48043 12.6743 0.734784 12.6743 1V2H6.82464V1C6.82464 0.734784 6.72193 0.48043 6.53909 0.292893C6.35625 0.105357 6.10827 0 5.8497 0C5.59112 0 5.34314 0.105357 5.1603 0.292893C4.97746 0.48043 4.87475 0.734784 4.87475 1V2H2.92485C2.14913 2 1.40518 2.31607 0.856668 2.87868C0.308153 3.44129 0 4.20435 0 5V17C0 17.7956 0.308153 18.5587 0.856668 19.1213C1.40518 19.6839 2.14913 20 2.92485 20H16.5741C17.3499 20 18.0938 19.6839 18.6423 19.1213C19.1908 18.5587 19.499 17.7956 19.499 17V5C19.499 4.20435 19.1908 3.44129 18.6423 2.87868C18.0938 2.31607 17.3499 2 16.5741 2ZM17.5491 17C17.5491 17.2652 17.4464 17.5196 17.2635 17.7071C17.0807 17.8946 16.8327 18 16.5741 18H2.92485C2.66628 18 2.41829 17.8946 2.23545 17.7071C2.05262 17.5196 1.9499 17.2652 1.9499 17V10H17.5491V17ZM17.5491 8H1.9499V5C1.9499 4.73478 2.05262 4.48043 2.23545 4.29289C2.41829 4.10536 2.66628 4 2.92485 4H4.87475V5C4.87475 5.26522 4.97746 5.51957 5.1603 5.70711C5.34314 5.89464 5.59112 6 5.8497 6C6.10827 6 6.35625 5.89464 6.53909 5.70711C6.72193 5.51957 6.82464 5.26522 6.82464 5V4H12.6743V5C12.6743 5.26522 12.7771 5.51957 12.9599 5.70711C13.1427 5.89464 13.3907 6 13.6493 6C13.9079 6 14.1558 5.89464 14.3387 5.70711C14.5215 5.51957 14.6242 5.26522 14.6242 5V4H16.5741C16.8327 4 17.0807 4.10536 17.2635 4.29289C17.4464 4.48043 17.5491 4.73478 17.5491 5V8Z" fill="black"/>
</svg>
