<svg width="56" height="49" viewBox="0 0 56 49" fill="none" xmlns="http://www.w3.org/2000/svg">
<path d="M1.82296 1.78166C2.98856 0.64167 4.5697 0.000804706 6.21868 0H18.656C20.6105 0 22.4583 0.902988 23.631 2.43112L26.8292 6.59875C26.9119 6.70659 27.0192 6.79411 27.1426 6.85439C27.2659 6.91467 27.402 6.94606 27.5399 6.94606H46.1959C47.1384 6.94606 48.0422 7.31196 48.7086 7.96328C49.3751 8.6146 49.7495 9.49798 49.7495 10.4191V12.1556H9.77221C9.06537 12.1556 8.38748 12.43 7.88767 12.9185C7.38786 13.407 7.10707 14.0695 7.10707 14.7604C7.10707 15.4512 7.38786 16.1137 7.88767 16.6022C8.38748 17.0907 9.06537 17.3651 9.77221 17.3651H52.3364C52.8384 17.3647 53.3348 17.4683 53.7929 17.6689C54.251 17.8696 54.6604 18.1629 54.9941 18.5294C55.3279 18.8959 55.5783 19.3274 55.7291 19.7954C55.8798 20.2634 55.9274 20.7573 55.8686 21.2445L53.303 42.5446C53.303 44.1565 52.6478 45.7024 51.4816 46.8423C50.3154 47.9821 48.7336 48.6224 47.0843 48.6224H6.21868C4.56939 48.6224 2.98764 47.9821 1.82141 46.8423C0.655181 45.7024 0 44.1565 0 42.5446V6.0778C0 4.46632 0.65385 2.91734 1.82296 1.78166Z" fill="white"/>
</svg>
