<svg width="30" height="23" viewBox="0 0 30 23" fill="none" xmlns="http://www.w3.org/2000/svg">
<path fill-rule="evenodd" clip-rule="evenodd" d="M29.0009 11.5013L29.8949 10.9778V10.9728L29.8885 10.9652L29.8755 10.935L29.8303 10.8343L29.658 10.4719C29.4477 10.0481 29.2242 9.63344 28.988 9.22869C28.1999 7.87711 27.2939 6.62465 26.2846 5.49141C23.859 2.77339 20.1258 0 14.9989 0C9.87634 0 6.14103 2.77087 3.71544 5.49141C2.70614 6.62465 1.80014 7.87711 1.01198 9.22869C0.692166 9.77996 0.395964 10.3494 0.124463 10.935L0.111538 10.9652L0.10723 10.9728V10.9753C0.10723 10.9753 0.105076 10.9778 0.999052 11.5013L0.105076 10.9753C0.0359583 11.1384 0 11.318 0 11.5C0 11.682 0.0359583 11.8616 0.105076 12.0247L0.102922 12.0298L0.109384 12.0373L0.122309 12.0675C0.18948 12.2248 0.261329 12.3792 0.337725 12.5306C1.2653 14.3612 2.4 16.0374 3.71114 17.5136C6.13887 20.2316 9.87203 23 14.9989 23C20.1237 23 23.859 20.2316 26.2867 17.5111C27.2941 16.3765 28.1993 15.1242 28.988 13.7738C29.2901 13.2543 29.5711 12.7185 29.8303 12.1682L29.8755 12.0675L29.8885 12.0373L29.8928 12.0298V12.0272C29.8928 12.0272 29.8949 12.0247 29.0009 11.5013ZM29.0009 11.5013L29.8949 12.0272C29.964 11.8641 30 11.6845 30 11.5025C30 11.3205 29.964 11.1409 29.8949 10.9778L29.0009 11.5013ZM14.8697 7.63563C13.9921 7.63563 13.1505 8.0429 12.53 8.76785C11.9095 9.49279 11.5609 10.476 11.5609 11.5013C11.5609 12.5265 11.9095 13.5097 12.53 14.2347C13.1505 14.9596 13.9921 15.3669 14.8697 15.3669C15.7472 15.3669 16.5888 14.9596 17.2093 14.2347C17.8299 13.5097 18.1785 12.5265 18.1785 11.5013C18.1785 10.476 17.8299 9.49279 17.2093 8.76785C16.5888 8.0429 15.7472 7.63563 14.8697 7.63563ZM9.56614 11.5013C9.56614 9.85662 10.1254 8.27934 11.1208 7.11641C12.1162 5.95347 13.4663 5.30014 14.874 5.30014C16.2817 5.30014 17.6318 5.95347 18.6272 7.11641C19.6226 8.27934 20.1818 9.85662 20.1818 11.5013C20.1818 13.1459 19.6226 14.7232 18.6272 15.8861C17.6318 17.049 16.2817 17.7024 14.874 17.7024C13.4663 17.7024 12.1162 17.049 11.1208 15.8861C10.1254 14.7232 9.56614 13.1459 9.56614 11.5013Z" fill="#8C8A8A"/>
</svg>
