<svg width="37" height="41" viewBox="0 0 37 41" fill="none" xmlns="http://www.w3.org/2000/svg">
<path d="M16.0731 0.777449C16.6155 0.275504 17.3036 0 18.0147 0C18.7258 0 19.4139 0.275504 19.9563 0.777449L34.9685 14.6795C35.301 14.9871 35.5681 15.37 35.7512 15.8016C35.9344 16.2332 36.0294 16.7032 36.0294 17.1789V37.7228C36.0294 38.5919 35.7131 39.4255 35.15 40.0401C34.5869 40.6547 33.8233 41 33.027 41H21.5176C21.1194 41 20.7376 40.8274 20.456 40.5201C20.1745 40.2128 20.0163 39.796 20.0163 39.3614V25.7063H16.0131V39.3614C16.0131 39.796 15.8549 40.2128 15.5734 40.5201C15.2918 40.8274 14.91 41 14.5118 41H3.00245C2.20615 41 1.44247 40.6547 0.879398 40.0401C0.316329 39.4255 0 38.5919 0 37.7228V17.1789C0 16.2176 0.388317 15.3021 1.06087 14.6795L16.0731 0.777449ZM18.0147 3.27688L3.00245 17.1789V37.7228H13.0106V24.0676C13.0106 23.6331 13.1688 23.2163 13.4503 22.909C13.7319 22.6017 14.1137 22.429 14.5118 22.429H21.5176C21.9157 22.429 22.2976 22.6017 22.5791 22.909C22.8606 23.2163 23.0188 23.6331 23.0188 24.0676V37.7228H33.027V17.1789L18.0147 3.27688Z" fill="white"/>
</svg>
