<svg width="39" height="42" viewBox="0 0 39 42" fill="none" xmlns="http://www.w3.org/2000/svg">
<path fill-rule="evenodd" clip-rule="evenodd" d="M33.2796 0C33.7176 0 34.1378 0.17402 34.4475 0.483779C34.7573 0.793537 34.9313 1.21366 34.9313 1.65173V10.9939C34.9313 11.4319 34.7573 11.8521 34.4475 12.1618C34.1378 12.4716 33.7176 12.6456 33.2796 12.6456H23.9352C23.4971 12.6456 23.077 12.4716 22.7673 12.1618C22.4575 11.8521 22.2835 11.4319 22.2835 10.9939C22.2835 10.5558 22.4575 10.1357 22.7673 9.82594C23.077 9.51618 23.4971 9.34216 23.9352 9.34216H29.1326C26.1507 6.99889 22.4322 5.79336 18.6427 5.94135C14.8531 6.08934 11.2399 7.58119 8.44984 10.1499C5.65976 12.7186 3.87495 16.1964 3.41487 19.9608C2.95479 23.7252 3.84948 27.5305 5.9388 30.6956C8.02811 33.8606 11.1757 36.1787 14.818 37.235C18.4604 38.2913 22.3598 38.0168 25.8183 36.4607C29.2768 34.9045 32.0685 32.1683 33.6938 28.7418C35.3192 25.3153 35.6719 21.4222 34.689 17.7593C34.6331 17.5497 34.619 17.331 34.6475 17.1159C34.676 16.9008 34.7467 16.6934 34.8554 16.5055C34.9641 16.3177 35.1087 16.1531 35.281 16.0212C35.4533 15.8892 35.6499 15.7925 35.8596 15.7365C36.0692 15.6806 36.2879 15.6665 36.503 15.695C36.7182 15.7235 36.9256 15.7942 37.1134 15.9029C37.3012 16.0116 37.4658 16.1562 37.5978 16.3285C37.7297 16.5008 37.8264 16.6974 37.8824 16.9071C39.0745 21.3513 38.6369 26.0754 36.6489 30.2251C34.6609 34.3748 31.2537 37.6762 27.0433 39.5323C22.8329 41.3883 18.0973 41.6766 13.6929 40.3448C9.28852 39.0131 5.50602 36.1493 3.02942 32.2713C0.552816 28.3933 -0.454406 23.7572 0.189891 19.2012C0.834187 14.6452 3.08747 10.4701 6.54228 7.4309C9.99709 4.39172 14.4254 2.68907 19.0263 2.63085C23.6273 2.57262 28.0972 4.16266 31.6278 7.11343V1.65173C31.6278 1.21366 31.8019 0.793537 32.1116 0.483779C32.4214 0.17402 32.8415 0 33.2796 0Z" fill="white"/>
</svg>
