<svg width="29" height="29" viewBox="0 0 29 29" fill="none" xmlns="http://www.w3.org/2000/svg">
<path d="M26.0313 28.2267L16.152 18.3474C15.3679 18.9746 14.4662 19.4712 13.4469 19.8371C12.4276 20.203 11.343 20.386 10.193 20.386C7.34417 20.386 4.9334 19.3991 2.96067 17.4253C0.987936 15.4515 0.00104626 13.0407 8.2971e-07 10.193C-0.0010446 7.34522 0.985845 4.93445 2.96067 2.96067C4.93549 0.98689 7.34627 0 10.193 0C13.0397 0 15.451 0.98689 17.4269 2.96067C19.4027 4.93445 20.3891 7.34522 20.386 10.193C20.386 11.343 20.203 12.4276 19.8371 13.4469C19.4712 14.4662 18.9746 15.3679 18.3474 16.152L28.2267 26.0313L26.0313 28.2267ZM10.193 17.2497C12.1532 17.2497 13.8196 16.5639 15.1922 15.1922C16.5649 13.8206 17.2507 12.1542 17.2497 10.193C17.2486 8.23175 16.5628 6.56585 15.1922 5.19528C13.8217 3.82472 12.1553 3.13839 10.193 3.1363C8.2307 3.13421 6.5648 3.82054 5.19529 5.19528C3.82577 6.57003 3.13944 8.23593 3.1363 10.193C3.13317 12.15 3.81949 13.8165 5.19529 15.1922C6.57108 16.568 8.23698 17.2538 10.193 17.2497Z" fill="#9D9998"/>
</svg>
